# xmcd
#
# Track frame offsets: 
#        150
#        12427
#        19102
#        26257
#        35642
#        50110
#        62110
#        78270
#        101622
#        124240
#        135257
#        150205
#        157322
#        167840
#        178987
#
# Disc length: 2756 seconds
#
# Revision: 0
# Processed by: cddbd v1.5.1PL0 Copyright (c) Steve Scherf et al.
# Submitted via: ExactAudioCopy v0.95a5
#
DISCID=c10ac20f
DTITLE=Various Artist - A Punk and Ska Christmas Gone Wrong
DYEAR=1997
DGENRE=Christmas/Holiday
TTITLE0=Cousin Oliver - Naked Christmas
TTITLE1=The Impossibles - White Christmas
TTITLE2=Unleaded Plus - Frosty The Snowman
TTITLE3=Less Than Jake - Grandma Got Run Over By A Reindeer
TTITLE4=Mullets Across America - Do They Know It's Christmas?
TTITLE5=Mothermania - Christmas Gone Wrong
TTITLE6=Wank - Auld Lang Syne
TTITLE7=Monsta Zero - Sleighride
TTITLE8=The Shakerz - Christmas Wrapping
TTITLE9=Size 14 - Mrs. Claus
TTITLE10=Brian Jones Was Murdered - So This Is Christmas
TTITLE11=Shower With Goats - Rudolph
TTITLE12=Fred Wilson F.B.I. - What's This?
TTITLE13=Minimum Wage - Do You Hear What I Hear?
TTITLE14=Ariel, From The Hippos - Dreidel, Dreidel
EXTD=
EXTT0=
EXTT1=
EXTT2=
EXTT3=
EXTT4=
EXTT5=
EXTT6=
EXTT7=
EXTT8=
EXTT9=
EXTT10=
EXTT11=
EXTT12=
EXTT13=
EXTT14=
PLAYORDER=
